<?xml version="1.0" encoding="UTF-8"?>
<svg id="Layer_1" data-name="Layer 1" xmlns="http://www.w3.org/2000/svg" viewBox="0 0 422.31 69.12">
  <defs>
    <style>
      .cls-1 {
        fill: none;
        stroke: #9a7ec4;
        stroke-miterlimit: 10;
      }
    </style>
  </defs>
  <g>
    <g>
      <path class="cls-1" d="M245.32,42.82c4.61,1.47,9.33,2.61,14.1,3.4,4.27.7,8.59,1.13,12.9,1.46,35.81,2.74,72.11-.9,106.66-10.71"/>
      <g>
        <g>
          <path class="cls-1" d="M264.69,46.36c.66-3.03,2.53-5.69,4.81-7.8,2.27-2.11,4.95-3.73,7.6-5.33.78,2.01.54,4.38-.61,6.19-.58.91-1.36,1.67-2.19,2.35-2.76,2.29-6.09,3.88-9.61,4.59Z"/>
          <path class="cls-1" d="M279.99,49.56c.08,3.14.77,6.32,2.34,9.04s4.09,4.96,7.11,5.86c1.24-3.25.54-7.17-1.77-9.78-.64-.72-1.38-1.35-2.15-1.93-1.71-1.28-3.57-2.35-5.53-3.19Z"/>
          <path class="cls-1" d="M315.83,62.61c.31-1.32.49-2.69.28-4.03-.19-1.24-.71-2.41-1.27-3.53-1.03-2.07-2.27-4.12-4.11-5.52-.18-.13-.4-.27-.6-.19-.2.08-.28.31-.33.51-1.16,4.59-.14,9.68,2.71,13.46.5.66,1.23,1.35,2.04,1.15.77-.19,1.11-1.08,1.29-1.85Z"/>
          <path class="cls-1" d="M315.47,46.63c1.24-5.56,5.09-10.47,10.18-13.02.34,1.04.69,2.1.73,3.2.11,2.93-1.99,5.52-4.39,7.21-1.94,1.36-4.17,2.35-6.53,2.61Z"/>
        </g>
        <g>
          <g>
            <path class="cls-1" d="M377.22,68.58c-.27-7.41-4.7-14.34-10.83-18.51-6.14-4.17-13.79-5.74-21.2-5.33-.56,2.49.25,5.08,1.36,7.37,3.02,6.22,8.46,11.22,14.91,13.7,5,1.92,10.42,2.35,15.76,2.76Z"/>
            <path class="cls-1" d="M345.64,45.96c1.52,1.11,3.22,1.95,4.89,2.83,9.54,5.07,18.19,11.8,25.46,19.8"/>
          </g>
          <g>
            <path class="cls-1" d="M377.52,37.6c13.18-7.7,30.08-8.67,44.05-2.52-2.68,4.18-7.25,6.88-12.05,8.16-4.8,1.28-9.84,1.28-14.8,1-6.35-.35-13.43-1.53-17.2-6.65Z"/>
            <path class="cls-1" d="M378.91,37.45c13.34,2.76,27.36,2.19,40.43-1.66"/>
          </g>
          <g>
            <path class="cls-1" d="M365.21,40.1c-1-5.95.94-12.18,4.55-17.01,3.62-4.83,8.8-8.33,14.37-10.64.23,4.33.43,8.85-1.27,12.84-.94,2.2-2.41,4.13-4,5.91-3.68,4.11-8.28,7.65-13.65,8.9Z"/>
            <path class="cls-1" d="M365.56,38.93c6.41-7.55,12.03-15.77,16.74-24.48"/>
          </g>
        </g>
      </g>
    </g>
    <g>
      <path class="cls-1" d="M176.99,42.82c-4.61,1.47-9.33,2.61-14.1,3.4-4.27.7-8.59,1.13-12.9,1.46-35.81,2.74-72.11-.9-106.66-10.71"/>
      <g>
        <g>
          <path class="cls-1" d="M157.62,46.36c-.66-3.03-2.53-5.69-4.81-7.8-2.27-2.11-4.95-3.73-7.6-5.33-.78,2.01-.54,4.38.61,6.19.58.91,1.36,1.67,2.19,2.35,2.76,2.29,6.09,3.88,9.61,4.59Z"/>
          <path class="cls-1" d="M142.31,49.56c-.08,3.14-.77,6.32-2.34,9.04-1.57,2.72-4.09,4.96-7.11,5.86-1.24-3.25-.54-7.17,1.77-9.78.64-.72,1.38-1.35,2.15-1.93,1.71-1.28,3.57-2.35,5.53-3.19Z"/>
          <path class="cls-1" d="M106.48,62.61c-.31-1.32-.49-2.69-.28-4.03.19-1.24.71-2.41,1.27-3.53,1.03-2.07,2.27-4.12,4.11-5.52.18-.13.4-.27.6-.19.2.08.28.31.33.51,1.16,4.59.14,9.68-2.71,13.46-.5.66-1.23,1.35-2.04,1.15-.77-.19-1.11-1.08-1.29-1.85Z"/>
          <path class="cls-1" d="M106.83,46.63c-1.24-5.56-5.09-10.47-10.18-13.02-.34,1.04-.69,2.1-.73,3.2-.11,2.93,1.99,5.52,4.39,7.21,1.94,1.36,4.17,2.35,6.53,2.61Z"/>
        </g>
        <g>
          <g>
            <path class="cls-1" d="M45.09,68.58c.27-7.41,4.7-14.34,10.83-18.51,6.14-4.17,13.79-5.74,21.2-5.33.56,2.49-.25,5.08-1.36,7.37-3.02,6.22-8.46,11.22-14.91,13.7-5,1.92-10.42,2.35-15.76,2.76Z"/>
            <path class="cls-1" d="M76.66,45.96c-1.52,1.11-3.22,1.95-4.89,2.83-9.54,5.07-18.19,11.8-25.46,19.8"/>
          </g>
          <g>
            <path class="cls-1" d="M44.79,37.6c-13.18-7.7-30.08-8.67-44.05-2.52,2.68,4.18,7.25,6.88,12.05,8.16,4.8,1.28,9.84,1.28,14.8,1,6.35-.35,13.43-1.53,17.2-6.65Z"/>
            <path class="cls-1" d="M43.4,37.45c-13.34,2.76-27.36,2.19-40.43-1.66"/>
          </g>
          <g>
            <path class="cls-1" d="M57.1,40.1c1-5.95-.94-12.18-4.55-17.01-3.62-4.83-8.8-8.33-14.37-10.64-.23,4.33-.43,8.85,1.27,12.84.94,2.2,2.41,4.13,4,5.91,3.68,4.11,8.28,7.65,13.65,8.9Z"/>
            <path class="cls-1" d="M56.75,38.93c-6.41-7.55-12.03-15.77-16.74-24.48"/>
          </g>
        </g>
      </g>
    </g>
  </g>
  <g>
    <path class="cls-1" d="M178.7,10.84c.82,9.49,5.06,18.65,11.75,25.43,6.7,6.78,15.81,11.12,25.29,12.05.52-3.15-.54-6.34-1.83-9.25-6.37-14.34-19.71-25.81-35.21-28.23Z"/>
    <path class="cls-1" d="M180.8,11.82c9.87,13.63,21.78,25.78,35.2,35.93"/>
    <path class="cls-1" d="M215.92,48.33c-.11-9.13,3.31-18.15,8.95-25.33,5.64-7.18,13.41-12.55,21.9-15.9.92,9.56-1.21,19.53-6.72,27.39-5.51,7.86-14.54,13.38-24.13,13.84Z"/>
    <path class="cls-1" d="M216.69,46.74c12.2-10.65,21.96-24.07,28.34-38.96"/>
    <g>
      <path class="cls-1" d="M210.38,27.31c-1.24-8.77-.89-17.75,1.02-26.4,5.41,4.51,8.61,11.42,9,18.45.39,7.03-1.93,14.1-6.03,19.82-2.4-3.46-3.4-7.7-3.99-11.87Z"/>
      <path class="cls-1" d="M212.12,3.53c3.05,10.38,4.28,21.29,3.61,32.09"/>
    </g>
  </g>
</svg>